<svg xmlns="http://www.w3.org/2000/svg" width="1600" height="1000" viewBox="0 0 1600 1000">
<rect width="100%" height="100%" fill="white"/>
<defs><marker id="arrow" markerWidth="12" markerHeight="12" refX="10" refY="5" orient="auto" markerUnits="strokeWidth"><path d="M0,0 L10,5 L0,10 Z" fill="black"/></marker></defs>
<style>text{font-family:"Noto Sans CJK SC","Noto Sans CJK",sans-serif;fill:black}</style>
<text x="800.0" y="42" font-size="32" font-weight="700" text-anchor="middle" dominant-baseline="middle">图2：多源数据公共时间区间与因果重采样</text>
<rect x="60" y="105" width="270" height="110" rx="20" fill="white" stroke="black" stroke-width="3"/>
<text x="74" y="121" font-size="20" font-weight="700" text-anchor="start" dominant-baseline="middle">210</text>
<text x="195.0" y="145.0" font-size="22" font-weight="700" text-anchor="middle" dominant-baseline="middle">Actual状态流</text>
<text x="195.0" y="175.0" font-size="22" font-weight="500" text-anchor="middle" dominant-baseline="middle">非均匀采样</text>
<rect x="60" y="285" width="270" height="110" rx="20" fill="white" stroke="black" stroke-width="3"/>
<text x="74" y="301" font-size="20" font-weight="700" text-anchor="start" dominant-baseline="middle">220</text>
<text x="195.0" y="325.0" font-size="22" font-weight="700" text-anchor="middle" dominant-baseline="middle">Target指令流</text>
<text x="195.0" y="355.0" font-size="22" font-weight="500" text-anchor="middle" dominant-baseline="middle">异步阶跃更新</text>
<rect x="60" y="465" width="270" height="110" rx="20" fill="white" stroke="black" stroke-width="3"/>
<text x="74" y="481" font-size="20" font-weight="700" text-anchor="start" dominant-baseline="middle">230</text>
<text x="195.0" y="505.0" font-size="22" font-weight="700" text-anchor="middle" dominant-baseline="middle">多相机图像流</text>
<text x="195.0" y="535.0" font-size="22" font-weight="500" text-anchor="middle" dominant-baseline="middle">异步时间戳</text>
<rect x="420" y="220" width="300" height="180" rx="20" fill="white" stroke="black" stroke-width="3"/>
<text x="434" y="236" font-size="20" font-weight="700" text-anchor="start" dominant-baseline="middle">240</text>
<text x="570.0" y="280.0" font-size="22" font-weight="700" text-anchor="middle" dominant-baseline="middle">公共有效区间</text>
<text x="570.0" y="310.0" font-size="22" font-weight="500" text-anchor="middle" dominant-baseline="middle">Tstart=max(首时间)</text>
<text x="570.0" y="340.0" font-size="22" font-weight="500" text-anchor="middle" dominant-baseline="middle">Tend=min(末时间)</text>
<line x1="330" y1="160" x2="420" y2="310" stroke="black" stroke-width="3"/>
<path d="M330,160 L420,310" fill="none" stroke="black" stroke-width="3" marker-end="url(#arrow)"/>
<line x1="330" y1="340" x2="420" y2="310" stroke="black" stroke-width="3"/>
<path d="M330,340 L420,310" fill="none" stroke="black" stroke-width="3" marker-end="url(#arrow)"/>
<line x1="330" y1="520" x2="420" y2="310" stroke="black" stroke-width="3"/>
<path d="M330,520 L420,310" fill="none" stroke="black" stroke-width="3" marker-end="url(#arrow)"/>
<rect x="805" y="105" width="300" height="110" rx="20" fill="white" stroke="black" stroke-width="3"/>
<text x="819" y="121" font-size="20" font-weight="700" text-anchor="start" dominant-baseline="middle">251</text>
<text x="955.0" y="145.0" font-size="22" font-weight="700" text-anchor="middle" dominant-baseline="middle">线性插值</text>
<text x="955.0" y="175.0" font-size="22" font-weight="500" text-anchor="middle" dominant-baseline="middle">连续Actual</text>
<rect x="805" y="285" width="300" height="110" rx="20" fill="white" stroke="black" stroke-width="3"/>
<text x="819" y="301" font-size="20" font-weight="700" text-anchor="start" dominant-baseline="middle">252</text>
<text x="955.0" y="325.0" font-size="22" font-weight="700" text-anchor="middle" dominant-baseline="middle">零阶保持</text>
<text x="955.0" y="355.0" font-size="22" font-weight="500" text-anchor="middle" dominant-baseline="middle">不读取未来Target</text>
<rect x="805" y="465" width="300" height="110" rx="20" fill="white" stroke="black" stroke-width="3"/>
<text x="819" y="481" font-size="20" font-weight="700" text-anchor="start" dominant-baseline="middle">253</text>
<text x="955.0" y="505.0" font-size="22" font-weight="700" text-anchor="middle" dominant-baseline="middle">时间最近邻</text>
<text x="955.0" y="535.0" font-size="22" font-weight="500" text-anchor="middle" dominant-baseline="middle">相机帧</text>
<line x1="720" y1="310" x2="805" y2="160" stroke="black" stroke-width="3"/>
<path d="M720,310 L805,160" fill="none" stroke="black" stroke-width="3" marker-end="url(#arrow)"/>
<line x1="720" y1="310" x2="805" y2="340" stroke="black" stroke-width="3"/>
<path d="M720,310 L805,340" fill="none" stroke="black" stroke-width="3" marker-end="url(#arrow)"/>
<line x1="720" y1="310" x2="805" y2="520" stroke="black" stroke-width="3"/>
<path d="M720,310 L805,520" fill="none" stroke="black" stroke-width="3" marker-end="url(#arrow)"/>
<rect x="1200" y="220" width="330" height="180" rx="20" fill="white" stroke="black" stroke-width="3"/>
<text x="1214" y="236" font-size="20" font-weight="700" text-anchor="start" dominant-baseline="middle">260</text>
<text x="1365.0" y="279.0" font-size="23" font-weight="700" text-anchor="middle" dominant-baseline="middle">统一采样网格</text>
<text x="1365.0" y="310.0" font-size="23" font-weight="500" text-anchor="middle" dominant-baseline="middle">Actual + Target + 图像</text>
<text x="1365.0" y="341.0" font-size="23" font-weight="500" text-anchor="middle" dominant-baseline="middle">同一帧语义</text>
<line x1="1105" y1="160" x2="1200" y2="310" stroke="black" stroke-width="3"/>
<path d="M1105,160 L1200,310" fill="none" stroke="black" stroke-width="3" marker-end="url(#arrow)"/>
<line x1="1105" y1="340" x2="1200" y2="310" stroke="black" stroke-width="3"/>
<path d="M1105,340 L1200,310" fill="none" stroke="black" stroke-width="3" marker-end="url(#arrow)"/>
<line x1="1105" y1="520" x2="1200" y2="310" stroke="black" stroke-width="3"/>
<path d="M1105,520 L1200,310" fill="none" stroke="black" stroke-width="3" marker-end="url(#arrow)"/>
<line x1="170" y1="720" x2="1430" y2="720" stroke="black" stroke-width="3"/>
<line x1="230" y1="705" x2="230" y2="735" stroke="black" stroke-width="2"/>
<text x="230" y="760" font-size="18" font-weight="500" text-anchor="middle" dominant-baseline="middle">t0</text>
<line x1="370" y1="705" x2="370" y2="735" stroke="black" stroke-width="2"/>
<text x="370" y="760" font-size="18" font-weight="500" text-anchor="middle" dominant-baseline="middle">t1</text>
<line x1="510" y1="705" x2="510" y2="735" stroke="black" stroke-width="2"/>
<text x="510" y="760" font-size="18" font-weight="500" text-anchor="middle" dominant-baseline="middle">t2</text>
<line x1="650" y1="705" x2="650" y2="735" stroke="black" stroke-width="2"/>
<text x="650" y="760" font-size="18" font-weight="500" text-anchor="middle" dominant-baseline="middle">t3</text>
<line x1="790" y1="705" x2="790" y2="735" stroke="black" stroke-width="2"/>
<text x="790" y="760" font-size="18" font-weight="500" text-anchor="middle" dominant-baseline="middle">t4</text>
<line x1="930" y1="705" x2="930" y2="735" stroke="black" stroke-width="2"/>
<text x="930" y="760" font-size="18" font-weight="500" text-anchor="middle" dominant-baseline="middle">t5</text>
<line x1="1070" y1="705" x2="1070" y2="735" stroke="black" stroke-width="2"/>
<text x="1070" y="760" font-size="18" font-weight="500" text-anchor="middle" dominant-baseline="middle">t6</text>
<line x1="1210" y1="705" x2="1210" y2="735" stroke="black" stroke-width="2"/>
<text x="1210" y="760" font-size="18" font-weight="500" text-anchor="middle" dominant-baseline="middle">t7</text>
<line x1="1350" y1="705" x2="1350" y2="735" stroke="black" stroke-width="2"/>
<text x="1350" y="760" font-size="18" font-weight="500" text-anchor="middle" dominant-baseline="middle">t8</text>
<text x="800" y="670" font-size="22" font-weight="700" text-anchor="middle" dominant-baseline="middle">统一时间网格（示意）</text>
<rect x="475" y="815" width="650" height="95" rx="20" fill="white" stroke="black" stroke-width="3"/>
<text x="489" y="831" font-size="20" font-weight="700" text-anchor="start" dominant-baseline="middle">270</text>
<text x="800.0" y="862.5" font-size="21" font-weight="700" text-anchor="middle" dominant-baseline="middle">因果约束：时刻 ti 的Target仅来自 timestamp ≤ ti 的指令</text>
<text x="800.0" y="975" font-size="22" text-anchor="middle">图2</text>
</svg>