<svg xmlns="http://www.w3.org/2000/svg" width="1600" height="1000" viewBox="0 0 1600 1000">
<rect width="100%" height="100%" fill="white"/>
<defs><marker id="arrow" markerWidth="12" markerHeight="12" refX="10" refY="5" orient="auto" markerUnits="strokeWidth"><path d="M0,0 L10,5 L0,10 Z" fill="black"/></marker></defs>
<style>text{font-family:"Noto Sans CJK SC","Noto Sans CJK",sans-serif;fill:black}</style>
<text x="800.0" y="42" font-size="32" font-weight="700" text-anchor="middle" dominant-baseline="middle">图9：基于仿真—实机差异的迭代修正闭环</text>
<rect x="100" y="150" width="320" height="140" rx="20" fill="white" stroke="black" stroke-width="3"/>
<text x="114" y="166" font-size="20" font-weight="700" text-anchor="start" dominant-baseline="middle">910</text>
<text x="260.0" y="204.5" font-size="23" font-weight="700" text-anchor="middle" dominant-baseline="middle">仿真数据生成</text>
<text x="260.0" y="235.5" font-size="23" font-weight="500" text-anchor="middle" dominant-baseline="middle">域随机化</text>
<rect x="500" y="90" width="350" height="140" rx="20" fill="white" stroke="black" stroke-width="3"/>
<text x="514" y="106" font-size="20" font-weight="700" text-anchor="start" dominant-baseline="middle">920</text>
<text x="675.0" y="144.5" font-size="23" font-weight="700" text-anchor="middle" dominant-baseline="middle">统一策略训练</text>
<text x="675.0" y="175.5" font-size="23" font-weight="500" text-anchor="middle" dominant-baseline="middle">与离线评测</text>
<rect x="1000" y="150" width="350" height="140" rx="20" fill="white" stroke="black" stroke-width="3"/>
<text x="1014" y="166" font-size="20" font-weight="700" text-anchor="start" dominant-baseline="middle">930</text>
<text x="1175.0" y="204.5" font-size="23" font-weight="700" text-anchor="middle" dominant-baseline="middle">实机策略执行</text>
<text x="1175.0" y="235.5" font-size="23" font-weight="500" text-anchor="middle" dominant-baseline="middle">多模态采集</text>
<rect x="1080" y="560" width="350" height="140" rx="20" fill="white" stroke="black" stroke-width="3"/>
<text x="1094" y="576" font-size="20" font-weight="700" text-anchor="start" dominant-baseline="middle">940</text>
<text x="1255.0" y="614.5" font-size="23" font-weight="700" text-anchor="middle" dominant-baseline="middle">Reality-to-Sim</text>
<text x="1255.0" y="645.5" font-size="23" font-weight="500" text-anchor="middle" dominant-baseline="middle">数字孪生回放</text>
<rect x="520" y="700" width="430" height="140" rx="20" fill="white" stroke="black" stroke-width="3"/>
<text x="534" y="716" font-size="20" font-weight="700" text-anchor="start" dominant-baseline="middle">950</text>
<text x="735.0" y="754.5" font-size="23" font-weight="700" text-anchor="middle" dominant-baseline="middle">差异分析</text>
<text x="735.0" y="785.5" font-size="23" font-weight="500" text-anchor="middle" dominant-baseline="middle">分类与阈值判定</text>
<rect x="80" y="560" width="350" height="140" rx="20" fill="white" stroke="black" stroke-width="3"/>
<text x="94" y="576" font-size="20" font-weight="700" text-anchor="start" dominant-baseline="middle">960</text>
<text x="255.0" y="614.5" font-size="23" font-weight="700" text-anchor="middle" dominant-baseline="middle">参数修正</text>
<text x="255.0" y="645.5" font-size="23" font-weight="500" text-anchor="middle" dominant-baseline="middle">数据筛选</text>
<line x1="420" y1="200" x2="500" y2="160" stroke="black" stroke-width="3"/>
<path d="M420,200 L500,160" fill="none" stroke="black" stroke-width="3" marker-end="url(#arrow)"/>
<line x1="850" y1="160" x2="1000" y2="200" stroke="black" stroke-width="3"/>
<path d="M850,160 L1000,200" fill="none" stroke="black" stroke-width="3" marker-end="url(#arrow)"/>
<line x1="1175" y1="290" x2="1255" y2="560" stroke="black" stroke-width="3"/>
<path d="M1175,290 L1255,560" fill="none" stroke="black" stroke-width="3" marker-end="url(#arrow)"/>
<line x1="1080" y1="630" x2="950" y2="770" stroke="black" stroke-width="3"/>
<path d="M1080,630 L950,770" fill="none" stroke="black" stroke-width="3" marker-end="url(#arrow)"/>
<line x1="520" y1="770" x2="430" y2="630" stroke="black" stroke-width="3"/>
<path d="M520,770 L430,630" fill="none" stroke="black" stroke-width="3" marker-end="url(#arrow)"/>
<line x1="255" y1="560" x2="260" y2="290" stroke="black" stroke-width="3"/>
<path d="M255,560 L260,290" fill="none" stroke="black" stroke-width="3" marker-end="url(#arrow)"/>
<rect x="585" y="390" width="430" height="155" rx="20" fill="white" stroke="black" stroke-width="3"/>
<text x="800.0" y="438.5" font-size="21" font-weight="700" text-anchor="middle" dominant-baseline="middle">误差信息 970</text>
<text x="800.0" y="467.5" font-size="21" font-weight="500" text-anchor="middle" dominant-baseline="middle">控制跟踪 / 动力学模型</text>
<text x="800.0" y="496.5" font-size="21" font-weight="500" text-anchor="middle" dominant-baseline="middle">视觉域 / 时间同步 / 数据质量</text>
<line x1="1080" y1="630" x2="1015" y2="468" stroke="black" stroke-width="3" stroke-dasharray="12 8"/>
<path d="M1080,630 L1015,468" fill="none" stroke="black" stroke-width="3" stroke-dasharray="12 8" marker-end="url(#arrow)"/>
<line x1="735" y1="700" x2="800" y2="545" stroke="black" stroke-width="3" stroke-dasharray="12 8"/>
<path d="M735,700 L800,545" fill="none" stroke="black" stroke-width="3" stroke-dasharray="12 8" marker-end="url(#arrow)"/>
<rect x="475" y="865" width="650" height="75" rx="20" fill="white" stroke="black" stroke-width="3"/>
<text x="489" y="881" font-size="20" font-weight="700" text-anchor="start" dominant-baseline="middle">980</text>
<text x="800.0" y="902.5" font-size="20" font-weight="700" text-anchor="middle" dominant-baseline="middle">输出：仿真参数、控制参数、相机参数及训练配置的更新量</text>
<text x="800.0" y="975" font-size="22" text-anchor="middle">图9</text>
</svg>